<?xml version="1.0" standalone="no"?><svg xmlns="http://www.w3.org/2000/svg" viewBox="0 0 1440 320"><path fill="#273036" fill-opacity="0.5" d="M0,32L16,80C32,128,64,224,96,224C128,224,160,128,192,101.3C224,75,256,117,288,160C320,203,352,245,384,245.3C416,245,448,203,480,165.3C512,128,544,96,576,117.3C608,139,640,213,672,245.3C704,277,736,267,768,250.7C800,235,832,213,864,192C896,171,928,149,960,160C992,171,1024,213,1056,224C1088,235,1120,213,1152,218.7C1184,224,1216,256,1248,256C1280,256,1312,224,1344,197.3C1376,171,1408,149,1424,138.7L1440,128L1440,320L1424,320C1408,320,1376,320,1344,320C1312,320,1280,320,1248,320C1216,320,1184,320,1152,320C1120,320,1088,320,1056,320C1024,320,992,320,960,320C928,320,896,320,864,320C832,320,800,320,768,320C736,320,704,320,672,320C640,320,608,320,576,320C544,320,512,320,480,320C448,320,416,320,384,320C352,320,320,320,288,320C256,320,224,320,192,320C160,320,128,320,96,320C64,320,32,320,16,320L0,320Z"></path></svg>